<mxfile host="app.diagrams.net" modified="2022-01-29T16:30:37.011Z" agent="5.0 (Macintosh)" etag="mwf6uszG7bg7lacL6eqD" version="16.2.3" type="github">
  <diagram id="3tjEcPHkUMHYJz9J_DOa" name="Page-1">
    <mxGraphModel dx="2037" dy="1096" grid="1" gridSize="10" guides="1" tooltips="1" connect="1" arrows="1" fold="1" page="1" pageScale="1" pageWidth="4000" pageHeight="2000" math="0" shadow="0">
      <root>
        <mxCell id="0" />
        <mxCell id="1" parent="0" />
        <mxCell id="UjUp_m7G3NTL6HbAY7-9-1" value="" style="sketch=0;points=[[0,0,0],[0.25,0,0],[0.5,0,0],[0.75,0,0],[1,0,0],[0,1,0],[0.25,1,0],[0.5,1,0],[0.75,1,0],[1,1,0],[0,0.25,0],[0,0.5,0],[0,0.75,0],[1,0.25,0],[1,0.5,0],[1,0.75,0]];outlineConnect=0;fontColor=#232F3E;gradientColor=#945DF2;gradientDirection=north;fillColor=#5A30B5;strokeColor=#ffffff;dashed=0;verticalLabelPosition=bottom;verticalAlign=top;align=center;html=1;fontSize=12;fontStyle=0;aspect=fixed;shape=mxgraph.aws4.resourceIcon;resIcon=mxgraph.aws4.transit_gateway;" vertex="1" parent="1">
          <mxGeometry x="410" y="350" width="78" height="78" as="geometry" />
        </mxCell>
        <mxCell id="UjUp_m7G3NTL6HbAY7-9-11" style="edgeStyle=orthogonalEdgeStyle;rounded=0;orthogonalLoop=1;jettySize=auto;html=1;entryX=0.5;entryY=1;entryDx=0;entryDy=0;entryPerimeter=0;startArrow=none;startFill=0;endArrow=classic;endFill=1;" edge="1" parent="1" source="UjUp_m7G3NTL6HbAY7-9-2" target="UjUp_m7G3NTL6HbAY7-9-10">
          <mxGeometry relative="1" as="geometry" />
        </mxCell>
        <mxCell id="UjUp_m7G3NTL6HbAY7-9-24" style="edgeStyle=orthogonalEdgeStyle;curved=1;orthogonalLoop=1;jettySize=auto;html=1;entryX=0;entryY=0.5;entryDx=0;entryDy=0;entryPerimeter=0;startArrow=none;startFill=0;endArrow=none;endFill=0;" edge="1" parent="1" source="UjUp_m7G3NTL6HbAY7-9-2" target="UjUp_m7G3NTL6HbAY7-9-1">
          <mxGeometry relative="1" as="geometry" />
        </mxCell>
        <mxCell id="UjUp_m7G3NTL6HbAY7-9-2" value="us-east-1" style="rounded=1;whiteSpace=wrap;html=1;" vertex="1" parent="1">
          <mxGeometry x="160" y="180" width="120" height="60" as="geometry" />
        </mxCell>
        <mxCell id="UjUp_m7G3NTL6HbAY7-9-23" style="edgeStyle=orthogonalEdgeStyle;curved=1;orthogonalLoop=1;jettySize=auto;html=1;entryX=1;entryY=0.5;entryDx=0;entryDy=0;entryPerimeter=0;startArrow=none;startFill=0;endArrow=none;endFill=0;" edge="1" parent="1" source="UjUp_m7G3NTL6HbAY7-9-3" target="UjUp_m7G3NTL6HbAY7-9-4">
          <mxGeometry relative="1" as="geometry" />
        </mxCell>
        <mxCell id="UjUp_m7G3NTL6HbAY7-9-3" value="eu-west-2" style="rounded=1;whiteSpace=wrap;html=1;" vertex="1" parent="1">
          <mxGeometry x="980" y="180" width="120" height="60" as="geometry" />
        </mxCell>
        <mxCell id="UjUp_m7G3NTL6HbAY7-9-26" value="" style="edgeStyle=orthogonalEdgeStyle;curved=1;orthogonalLoop=1;jettySize=auto;html=1;startArrow=none;startFill=0;endArrow=none;endFill=0;entryX=1;entryY=0.5;entryDx=0;entryDy=0;entryPerimeter=0;" edge="1" parent="1" source="UjUp_m7G3NTL6HbAY7-9-4" target="UjUp_m7G3NTL6HbAY7-9-1">
          <mxGeometry relative="1" as="geometry">
            <mxPoint x="680" y="389" as="targetPoint" />
          </mxGeometry>
        </mxCell>
        <mxCell id="UjUp_m7G3NTL6HbAY7-9-4" value="" style="sketch=0;points=[[0,0,0],[0.25,0,0],[0.5,0,0],[0.75,0,0],[1,0,0],[0,1,0],[0.25,1,0],[0.5,1,0],[0.75,1,0],[1,1,0],[0,0.25,0],[0,0.5,0],[0,0.75,0],[1,0.25,0],[1,0.5,0],[1,0.75,0]];outlineConnect=0;fontColor=#232F3E;gradientColor=#945DF2;gradientDirection=north;fillColor=#5A30B5;strokeColor=#ffffff;dashed=0;verticalLabelPosition=bottom;verticalAlign=top;align=center;html=1;fontSize=12;fontStyle=0;aspect=fixed;shape=mxgraph.aws4.resourceIcon;resIcon=mxgraph.aws4.transit_gateway;" vertex="1" parent="1">
          <mxGeometry x="760" y="350" width="78" height="78" as="geometry" />
        </mxCell>
        <mxCell id="UjUp_m7G3NTL6HbAY7-9-9" style="edgeStyle=orthogonalEdgeStyle;rounded=0;orthogonalLoop=1;jettySize=auto;html=1;endArrow=classic;endFill=1;startArrow=none;startFill=0;" edge="1" parent="1" source="UjUp_m7G3NTL6HbAY7-9-8" target="UjUp_m7G3NTL6HbAY7-9-3">
          <mxGeometry relative="1" as="geometry" />
        </mxCell>
        <mxCell id="UjUp_m7G3NTL6HbAY7-9-8" value="" style="sketch=0;points=[[0,0,0],[0.25,0,0],[0.5,0,0],[0.75,0,0],[1,0,0],[0,1,0],[0.25,1,0],[0.5,1,0],[0.75,1,0],[1,1,0],[0,0.25,0],[0,0.5,0],[0,0.75,0],[1,0.25,0],[1,0.5,0],[1,0.75,0]];outlineConnect=0;fontColor=#232F3E;gradientColor=#4AB29A;gradientDirection=north;fillColor=#116D5B;strokeColor=#ffffff;dashed=0;verticalLabelPosition=bottom;verticalAlign=top;align=center;html=1;fontSize=12;fontStyle=0;aspect=fixed;shape=mxgraph.aws4.resourceIcon;resIcon=mxgraph.aws4.workspaces;" vertex="1" parent="1">
          <mxGeometry x="1001" y="350" width="78" height="78" as="geometry" />
        </mxCell>
        <mxCell id="UjUp_m7G3NTL6HbAY7-9-10" value="" style="sketch=0;html=1;dashed=0;whitespace=wrap;fillColor=#2875E2;strokeColor=#ffffff;points=[[0.005,0.63,0],[0.1,0.2,0],[0.9,0.2,0],[0.5,0,0],[0.995,0.63,0],[0.72,0.99,0],[0.5,1,0],[0.28,0.99,0]];shape=mxgraph.kubernetes.icon;prIcon=api" vertex="1" parent="1">
          <mxGeometry x="195" y="70" width="50" height="48" as="geometry" />
        </mxCell>
        <mxCell id="UjUp_m7G3NTL6HbAY7-9-16" value="" style="edgeStyle=orthogonalEdgeStyle;curved=1;orthogonalLoop=1;jettySize=auto;html=1;startArrow=none;startFill=0;endArrow=classic;endFill=1;" edge="1" parent="1" source="UjUp_m7G3NTL6HbAY7-9-12" target="UjUp_m7G3NTL6HbAY7-9-2">
          <mxGeometry relative="1" as="geometry" />
        </mxCell>
        <mxCell id="UjUp_m7G3NTL6HbAY7-9-12" value="" style="sketch=0;points=[[0,0,0],[0.25,0,0],[0.5,0,0],[0.75,0,0],[1,0,0],[0,1,0],[0.25,1,0],[0.5,1,0],[0.75,1,0],[1,1,0],[0,0.25,0],[0,0.5,0],[0,0.75,0],[1,0.25,0],[1,0.5,0],[1,0.75,0]];outlineConnect=0;fontColor=#232F3E;gradientColor=#4AB29A;gradientDirection=north;fillColor=#116D5B;strokeColor=#ffffff;dashed=0;verticalLabelPosition=bottom;verticalAlign=top;align=center;html=1;fontSize=12;fontStyle=0;aspect=fixed;shape=mxgraph.aws4.resourceIcon;resIcon=mxgraph.aws4.workspaces;" vertex="1" parent="1">
          <mxGeometry x="181" y="350" width="78" height="78" as="geometry" />
        </mxCell>
        <mxCell id="UjUp_m7G3NTL6HbAY7-9-15" style="edgeStyle=orthogonalEdgeStyle;orthogonalLoop=1;jettySize=auto;html=1;entryX=0.5;entryY=1;entryDx=0;entryDy=0;entryPerimeter=0;startArrow=none;startFill=0;endArrow=classic;endFill=1;curved=1;" edge="1" parent="1" source="UjUp_m7G3NTL6HbAY7-9-14" target="UjUp_m7G3NTL6HbAY7-9-12">
          <mxGeometry relative="1" as="geometry" />
        </mxCell>
        <mxCell id="UjUp_m7G3NTL6HbAY7-9-17" style="edgeStyle=orthogonalEdgeStyle;curved=1;orthogonalLoop=1;jettySize=auto;html=1;entryX=0.5;entryY=1;entryDx=0;entryDy=0;entryPerimeter=0;startArrow=none;startFill=0;endArrow=classic;endFill=1;" edge="1" parent="1" source="UjUp_m7G3NTL6HbAY7-9-14" target="UjUp_m7G3NTL6HbAY7-9-8">
          <mxGeometry relative="1" as="geometry" />
        </mxCell>
        <mxCell id="UjUp_m7G3NTL6HbAY7-9-14" value="users" style="sketch=0;outlineConnect=0;gradientColor=none;fontColor=#545B64;strokeColor=none;fillColor=#879196;dashed=0;verticalLabelPosition=bottom;verticalAlign=top;align=center;html=1;fontSize=12;fontStyle=0;aspect=fixed;shape=mxgraph.aws4.illustration_users;pointerEvents=1" vertex="1" parent="1">
          <mxGeometry x="990" y="660" width="100" height="100" as="geometry" />
        </mxCell>
        <mxCell id="UjUp_m7G3NTL6HbAY7-9-22" style="edgeStyle=orthogonalEdgeStyle;curved=1;orthogonalLoop=1;jettySize=auto;html=1;startArrow=classic;startFill=1;endArrow=classic;endFill=1;" edge="1" parent="1" source="UjUp_m7G3NTL6HbAY7-9-19" target="UjUp_m7G3NTL6HbAY7-9-20">
          <mxGeometry relative="1" as="geometry" />
        </mxCell>
        <mxCell id="UjUp_m7G3NTL6HbAY7-9-19" value="" style="sketch=0;outlineConnect=0;fontColor=#232F3E;gradientColor=none;fillColor=#D45B07;strokeColor=none;dashed=0;verticalLabelPosition=bottom;verticalAlign=top;align=center;html=1;fontSize=12;fontStyle=0;aspect=fixed;pointerEvents=1;shape=mxgraph.aws4.instance2;" vertex="1" parent="1">
          <mxGeometry x="259" y="150" width="48" height="48" as="geometry" />
        </mxCell>
        <mxCell id="UjUp_m7G3NTL6HbAY7-9-20" value="" style="sketch=0;outlineConnect=0;fontColor=#232F3E;gradientColor=none;fillColor=#D45B07;strokeColor=none;dashed=0;verticalLabelPosition=bottom;verticalAlign=top;align=center;html=1;fontSize=12;fontStyle=0;aspect=fixed;pointerEvents=1;shape=mxgraph.aws4.instance2;" vertex="1" parent="1">
          <mxGeometry x="953" y="150" width="48" height="48" as="geometry" />
        </mxCell>
        <mxCell id="UjUp_m7G3NTL6HbAY7-9-28" value="AWS Cloud" style="points=[[0,0],[0.25,0],[0.5,0],[0.75,0],[1,0],[1,0.25],[1,0.5],[1,0.75],[1,1],[0.75,1],[0.5,1],[0.25,1],[0,1],[0,0.75],[0,0.5],[0,0.25]];outlineConnect=0;gradientColor=none;html=1;whiteSpace=wrap;fontSize=12;fontStyle=0;container=1;pointerEvents=0;collapsible=0;recursiveResize=0;shape=mxgraph.aws4.group;grIcon=mxgraph.aws4.group_aws_cloud;strokeColor=#232F3E;fillColor=none;verticalAlign=top;align=left;spacingLeft=30;fontColor=#232F3E;dashed=0;" vertex="1" parent="1">
          <mxGeometry x="1270" y="140" width="1380" height="720" as="geometry" />
        </mxCell>
        <mxCell id="UjUp_m7G3NTL6HbAY7-9-29" value="Region" style="points=[[0,0],[0.25,0],[0.5,0],[0.75,0],[1,0],[1,0.25],[1,0.5],[1,0.75],[1,1],[0.75,1],[0.5,1],[0.25,1],[0,1],[0,0.75],[0,0.5],[0,0.25]];outlineConnect=0;gradientColor=none;html=1;whiteSpace=wrap;fontSize=12;fontStyle=0;container=1;pointerEvents=0;collapsible=0;recursiveResize=0;shape=mxgraph.aws4.group;grIcon=mxgraph.aws4.group_region;strokeColor=#147EBA;fillColor=none;verticalAlign=top;align=left;spacingLeft=30;fontColor=#147EBA;dashed=1;" vertex="1" parent="UjUp_m7G3NTL6HbAY7-9-28">
          <mxGeometry x="50" y="58" width="520" height="602" as="geometry" />
        </mxCell>
        <mxCell id="UjUp_m7G3NTL6HbAY7-9-32" value="VPC" style="points=[[0,0],[0.25,0],[0.5,0],[0.75,0],[1,0],[1,0.25],[1,0.5],[1,0.75],[1,1],[0.75,1],[0.5,1],[0.25,1],[0,1],[0,0.75],[0,0.5],[0,0.25]];outlineConnect=0;gradientColor=none;html=1;whiteSpace=wrap;fontSize=12;fontStyle=0;container=1;pointerEvents=0;collapsible=0;recursiveResize=0;shape=mxgraph.aws4.group;grIcon=mxgraph.aws4.group_vpc;strokeColor=#248814;fillColor=none;verticalAlign=top;align=left;spacingLeft=30;fontColor=#AAB7B8;dashed=0;" vertex="1" parent="UjUp_m7G3NTL6HbAY7-9-29">
          <mxGeometry x="40" y="42" width="440" height="518" as="geometry" />
        </mxCell>
        <mxCell id="UjUp_m7G3NTL6HbAY7-9-35" value="VPC Firewall" style="fillColor=none;strokeColor=#b85450;verticalAlign=top;fontStyle=0;" vertex="1" parent="UjUp_m7G3NTL6HbAY7-9-32">
          <mxGeometry x="40" y="40" width="360" height="440" as="geometry" />
        </mxCell>
        <mxCell id="UjUp_m7G3NTL6HbAY7-9-34" value="" style="sketch=0;points=[[0,0,0],[0.25,0,0],[0.5,0,0],[0.75,0,0],[1,0,0],[0,1,0],[0.25,1,0],[0.5,1,0],[0.75,1,0],[1,1,0],[0,0.25,0],[0,0.5,0],[0,0.75,0],[1,0.25,0],[1,0.5,0],[1,0.75,0]];outlineConnect=0;fontColor=#232F3E;gradientColor=#F78E04;gradientDirection=north;fillColor=#D05C17;strokeColor=#ffffff;dashed=0;verticalLabelPosition=bottom;verticalAlign=top;align=center;html=1;fontSize=12;fontStyle=0;aspect=fixed;shape=mxgraph.aws4.resourceIcon;resIcon=mxgraph.aws4.ec2;" vertex="1" parent="UjUp_m7G3NTL6HbAY7-9-32">
          <mxGeometry x="181" y="221" width="78" height="78" as="geometry" />
        </mxCell>
        <mxCell id="UjUp_m7G3NTL6HbAY7-9-30" value="Region" style="points=[[0,0],[0.25,0],[0.5,0],[0.75,0],[1,0],[1,0.25],[1,0.5],[1,0.75],[1,1],[0.75,1],[0.5,1],[0.25,1],[0,1],[0,0.75],[0,0.5],[0,0.25]];outlineConnect=0;gradientColor=none;html=1;whiteSpace=wrap;fontSize=12;fontStyle=0;container=1;pointerEvents=0;collapsible=0;recursiveResize=0;shape=mxgraph.aws4.group;grIcon=mxgraph.aws4.group_region;strokeColor=#147EBA;fillColor=none;verticalAlign=top;align=left;spacingLeft=30;fontColor=#147EBA;dashed=1;" vertex="1" parent="UjUp_m7G3NTL6HbAY7-9-28">
          <mxGeometry x="810" y="58" width="520" height="602" as="geometry" />
        </mxCell>
        <mxCell id="UjUp_m7G3NTL6HbAY7-9-31" value="VPC" style="points=[[0,0],[0.25,0],[0.5,0],[0.75,0],[1,0],[1,0.25],[1,0.5],[1,0.75],[1,1],[0.75,1],[0.5,1],[0.25,1],[0,1],[0,0.75],[0,0.5],[0,0.25]];outlineConnect=0;gradientColor=none;html=1;whiteSpace=wrap;fontSize=12;fontStyle=0;container=1;pointerEvents=0;collapsible=0;recursiveResize=0;shape=mxgraph.aws4.group;grIcon=mxgraph.aws4.group_vpc;strokeColor=#248814;fillColor=none;verticalAlign=top;align=left;spacingLeft=30;fontColor=#AAB7B8;dashed=0;" vertex="1" parent="UjUp_m7G3NTL6HbAY7-9-30">
          <mxGeometry x="40" y="42" width="440" height="518" as="geometry" />
        </mxCell>
        <mxCell id="UjUp_m7G3NTL6HbAY7-9-36" value="VPC Firewall" style="fillColor=none;strokeColor=#b85450;verticalAlign=top;fontStyle=0;" vertex="1" parent="UjUp_m7G3NTL6HbAY7-9-31">
          <mxGeometry x="40" y="39" width="360" height="440" as="geometry" />
        </mxCell>
        <mxCell id="UjUp_m7G3NTL6HbAY7-9-33" value="" style="sketch=0;points=[[0,0,0],[0.25,0,0],[0.5,0,0],[0.75,0,0],[1,0,0],[0,1,0],[0.25,1,0],[0.5,1,0],[0.75,1,0],[1,1,0],[0,0.25,0],[0,0.5,0],[0,0.75,0],[1,0.25,0],[1,0.5,0],[1,0.75,0]];outlineConnect=0;fontColor=#232F3E;gradientColor=#4AB29A;gradientDirection=north;fillColor=#116D5B;strokeColor=#ffffff;dashed=0;verticalLabelPosition=bottom;verticalAlign=top;align=center;html=1;fontSize=12;fontStyle=0;aspect=fixed;shape=mxgraph.aws4.resourceIcon;resIcon=mxgraph.aws4.workspaces;" vertex="1" parent="UjUp_m7G3NTL6HbAY7-9-31">
          <mxGeometry x="181" y="220" width="78" height="78" as="geometry" />
        </mxCell>
        <mxCell id="UjUp_m7G3NTL6HbAY7-9-39" style="edgeStyle=orthogonalEdgeStyle;rounded=0;orthogonalLoop=1;jettySize=auto;html=1;entryX=1;entryY=0.5;entryDx=0;entryDy=0;entryPerimeter=0;startArrow=none;startFill=0;endArrow=classic;endFill=1;" edge="1" parent="UjUp_m7G3NTL6HbAY7-9-28" source="UjUp_m7G3NTL6HbAY7-9-33" target="UjUp_m7G3NTL6HbAY7-9-34">
          <mxGeometry relative="1" as="geometry" />
        </mxCell>
        <mxCell id="UjUp_m7G3NTL6HbAY7-9-44" style="edgeStyle=orthogonalEdgeStyle;rounded=0;orthogonalLoop=1;jettySize=auto;html=1;entryX=1;entryY=0.25;entryDx=0;entryDy=0;startArrow=none;startFill=0;endArrow=classic;endFill=1;" edge="1" parent="UjUp_m7G3NTL6HbAY7-9-28" source="UjUp_m7G3NTL6HbAY7-9-43" target="UjUp_m7G3NTL6HbAY7-9-32">
          <mxGeometry relative="1" as="geometry" />
        </mxCell>
        <mxCell id="UjUp_m7G3NTL6HbAY7-9-45" style="edgeStyle=orthogonalEdgeStyle;rounded=0;orthogonalLoop=1;jettySize=auto;html=1;entryX=0;entryY=0.25;entryDx=0;entryDy=0;startArrow=none;startFill=0;endArrow=classic;endFill=1;" edge="1" parent="UjUp_m7G3NTL6HbAY7-9-28" source="UjUp_m7G3NTL6HbAY7-9-43" target="UjUp_m7G3NTL6HbAY7-9-31">
          <mxGeometry relative="1" as="geometry" />
        </mxCell>
        <mxCell id="UjUp_m7G3NTL6HbAY7-9-43" value="" style="sketch=0;outlineConnect=0;fontColor=#232F3E;gradientColor=none;fillColor=#4D27AA;strokeColor=none;dashed=0;verticalLabelPosition=bottom;verticalAlign=top;align=center;html=1;fontSize=12;fontStyle=0;aspect=fixed;pointerEvents=1;shape=mxgraph.aws4.peering;" vertex="1" parent="UjUp_m7G3NTL6HbAY7-9-28">
          <mxGeometry x="651" y="190" width="78" height="78" as="geometry" />
        </mxCell>
        <mxCell id="UjUp_m7G3NTL6HbAY7-9-37" value="users" style="sketch=0;outlineConnect=0;gradientColor=none;fontColor=#545B64;strokeColor=none;fillColor=#879196;dashed=0;verticalLabelPosition=bottom;verticalAlign=top;align=center;html=1;fontSize=12;fontStyle=0;aspect=fixed;shape=mxgraph.aws4.illustration_users;pointerEvents=1" vertex="1" parent="1">
          <mxGeometry x="2290" y="950" width="100" height="100" as="geometry" />
        </mxCell>
        <mxCell id="UjUp_m7G3NTL6HbAY7-9-38" style="edgeStyle=orthogonalEdgeStyle;orthogonalLoop=1;jettySize=auto;html=1;startArrow=classic;startFill=1;endArrow=none;endFill=0;rounded=0;" edge="1" parent="1" source="UjUp_m7G3NTL6HbAY7-9-33" target="UjUp_m7G3NTL6HbAY7-9-37">
          <mxGeometry relative="1" as="geometry" />
        </mxCell>
      </root>
    </mxGraphModel>
  </diagram>
</mxfile>
